<svg id="Ebene_1" data-name="Ebene 1" xmlns="http://www.w3.org/2000/svg" viewBox="0 0 793.92 781.68"><defs><style>.cls-1{fill:#ffcaff;}</style></defs><path class="cls-1" d="M255.86,708.11c0-14.74,1.75-15.79,8.42-17.54,9.47-2.81,12.28-1.05,12.28-6.32,0-2.45-1.41-3.5-6-3.5-6.31,0-14,1.4-27.71,1.4-13,0-22.81-1-30.88-1.4-4.56,0-6.66,1.4-6.66,3.85,0,5.27,4.21,4.92,13,5.62,10.87,1,13.33,2.8,13.33,22.1V753c0,8.77-.7,15.43-3.51,20-4.91,7.37-14.38,9.83-24.91,9.83-43.85,0-69.11-41.75-69.11-108.41,0-48.76,23.85-104.9,65.95-104.9,21.76,0,29.83,13,39.3,36.49,4.56,11.57,6,16.14,9.47,16.14,3.16,0,4.21-1.06,4.91-8.07v-21.4c0-15.44-.7-20-3.86-21.75-9.12-6.32-24.91-9.83-46.66-9.83-47.71,0-97.88,44.2-97.88,119.64,0,66.65,41.75,110.51,94,110.51,17.9,0,36.14-3.86,47.72-10.88,3.5-1.75,6-3.86,7-6.67a12,12,0,0,0,1.76-6.31V708.11Zm40.34,50.17c0,16.49-1.4,19.65-12.28,20.7-4.56.7-7.71,1-7.71,4.91,0,2.46,2.45,3.51,6.31,3.51s9.12-1.41,24.56-1.41c19.29,0,24.21,1.41,28.07,1.41,6,0,7.71-.7,7.71-3.86,0-2.81-4.56-3.51-11.57-4.56-13-1.76-13.34-7-13.34-23.51V685.66a70.26,70.26,0,0,1,5.62-27c3.51-9.12,9.12-17.19,16.49-17.19,3.86,0,4.56,5.27,4.91,10.53.7,7,3.51,12.63,12.28,12.63,9.12,0,13.33-7.37,13.33-18.25,0-13.68-7-22.1-18.59-22.1-11.93,0-18.95,7.72-24.21,15.08-5.26,7-7.72,14.74-10.53,14.74-1.4,0-1.4-3.86-1.4-9.47,0-6,0-11.58-.35-15.44-.35-3.5-1.05-5.26-2.81-5.26-2.8,0-4.21,2.46-8.77,7.37a44.76,44.76,0,0,1-19.65,11.93c-3.5,1-6.31,2.1-6.31,5.61,0,2.1,1.4,2.8,4.56,2.8,10.52,0,13.68,2.46,13.68,16.85v89.81Zm147-81.39c0,8.41-1.76,11.22-11.23,17.54-6,4.56-14.73,9.82-26.66,18.24-25.61,17.54-39.65,28.77-39.65,47.36,0,19.65,12.28,30.18,27,30.18a51.18,51.18,0,0,0,33-11.93c8.77-6.67,14-14,16.48-14,1.76,0,2.46,2.11,3.51,4.91,2.11,7.37,4.91,19.65,19.3,19.65,19.29,0,29.12-20.35,29.12-26.66,0-3.86-1.05-5.26-2.81-5.26-2.1,0-3.51,3.85-4.91,7.36-1.76,3.86-4.91,7.37-11.23,7.37-7.36,0-10.17-7-10.17-16.49V649.87c0-9.82-1.41-15.43-5.26-19.3-4.92-5.26-13-6.66-24.21-6.66-41.05,0-70.87,33-70.87,51.92,0,5.27,1.75,7.37,7,7.37s10.17-2.45,13.68-5.26c3.86-3.51,6.31-8.42,8.07-13,5.61-19,14.38-33,33.68-33,12.28,0,16.14,7.36,16.14,25.61v19.3Zm-53.68,77.53c0-13.68,8.07-24.56,19.65-34.38A173.57,173.57,0,0,1,432,703.2c5.26-3.51,7.37-4.21,9.12-4.21s2.11,1.4,2.11,5.61V740c0,10.18-2.11,15.44-10.18,22.81-7.72,7.37-15.78,12.28-24.91,12.28-10.17,0-18.59-6.67-18.59-20.35v-.35ZM566.69,640.05C587,640.05,593,645,593,665v95.77c0,13.69-1.4,16.49-14.73,18.25-4.56.7-6.67,2.1-6.67,4.56s1.75,3.86,4.21,3.86c6,0,16.49-1.41,27.72-1.41s20.7,1.41,27.71,1.41c3.86,0,5.27-1,5.27-3.51,0-3.16-3.16-3.86-9.13-4.91-13-2.11-13-8.42-13-20V644.26c.35-5.62.35-11.23.35-16.84,0-2.46-.7-4.21-2.45-4.21-2.11,0-7.72,2.1-11.58,2.46a214,214,0,0,1-29.82,2.45H538.27c-10.17,0-11.22-1.75-11.22-11.93,0-46,14-69.11,44.9-69.11,11.23,0,15.44,8.07,18.25,15.78,3.15,8.08,4.56,16.14,10.17,16.14,7.72,0,10.88-10.87,10.88-26.31,0-7.72-21.4-14.73-37.9-14.73-36.13,0-66.3,26.31-68.06,72.62-.35,9.82-3.5,14.73-8.77,17.19-4.2,2.45-8.07,3.16-8.07,7s4.57,4.2,8.42,4.91c5.27.7,8.42,1.75,8.42,8.42V757.23c0,16.84-3.15,20.7-14.73,21.75-5.26.7-7.72,2.1-7.72,4.91,0,2.46,2.1,3.51,8.07,3.51,5.61,0,14.73-1.41,25.61-1.41,12.28,0,23.15,1.41,30.17,1.41,4.21,0,5.26-1.41,5.26-3.51,0-3.86-4.55-4.21-9.82-4.91-11.58-1.76-15.08-6.32-15.08-22.8v-106c0-8.07.35-10.17,13-10.17ZM649.48,767.4c0,6-.7,10.53-10.87,11.58-5.61.7-7.72,1.75-7.72,4.21,0,2.8,1.76,4.21,4.56,4.21,4.56,0,15.44-1.41,26.31-1.41,8.77,0,22.11,1.41,27.37,1.41,1.76,0,3.86-1.41,3.86-3.16,0-4.21-6-4.56-10.88-5.26-5.61-.7-11.23-2.11-11.23-15.79v-40.7c0-9.47,14-19.64,15.44-19.64s4.57,4.91,8.77,11.92c8.07,12.63,19.65,32.28,27.37,45.61,3.86,6.32,6.66,11.93,6.66,14,0,3.51-4.21,4.21-7.71,4.91-3.86.35-7.72.7-7.72,4.56,0,2.46,1.4,3.51,4.56,3.51,4.91,0,14.74-1.41,25.26-1.41,11.23,0,20.7,1.41,25.61,1.41,3.51,0,5.26-.7,5.26-3.86,0-3.51-2.81-3.51-9.12-4.56-4.56-.7-7.37-2.81-18.94-21.4-13.69-21.4-27.72-46.66-39.65-64.56-2.46-3.85-4.21-6.31-4.21-8.07s2.1-3.85,6-8.06A349.7,349.7,0,0,1,734,651.27c8.77-7.36,16.84-14.38,25.25-16.13,4.57-1.06,7.38-2.11,7.38-4.92s-1.41-3.5-6-3.5c-8.42.35-14.73,1.4-26,1.4-8.77,0-18.25-1-25.26-1.4-4.92,0-6.67.7-6.67,3.85s3.51,4.57,7,4.92c10.88,1,13,3.85,13,7.72,0,2.8-2.1,6.31-6.32,11.57-11.57,13.69-23.85,26.67-35.78,39.65-3.51,3.86-6,5.61-7.72,5.61-1.4,0-2.11-1.4-2.11-9.82v-147c0-4.21-.35-5.26-1.75-5.26-2.1,0-4.21,1.75-7.37,3.5-7,3.86-17.89,7.37-26,10.18-3.51,1.05-4.91,2.1-4.91,4.56s1.76,2.81,7,3.51c8.77,1.4,11.57,3.15,11.57,10.52V767.4Z" transform="translate(-33.08 -9.57)"/><path class="cls-1" d="M59,487.69C59,502.08,56.59,507,44,508.74c-8.42,1.05-10.88,1.4-10.88,5.26,0,3.16,2.46,4.21,6.67,4.21,5.61,0,14.38-1.4,26-1.4,16.84,0,30.52,1.4,43.5,1.4,70.52,0,97.18-51.22,97.18-115.77,0-31.93-9.82-59.64-27.71-79.29-17.54-20-42.8-31.22-74-31.22-20.7,0-42.1,1.4-58.94,6.31-10.52,3.51-12.63,3.86-12.63,7,0,2.45,2.11,3.15,6,3.51s7.36,0,10.87,0c7,1.4,9.12,4.91,9.12,13.68V487.69ZM83.25,320.34C83.25,306,86.06,300,106.41,300c40.69,0,73,30.18,73,106.31,0,36.83-6.31,63.15-18.59,80-13,17.19-30.18,23.85-52.28,23.85-19.64,0-25.26-10.17-25.26-27V320.34Zm158.58,9.83c7.37,0,13.33-5.27,13.33-17.55,0-11.57-6-17.19-13.33-17.19-7,0-13.33,5.62-13.33,17.55s6,17.19,13,17.19ZM231,491.55c0,13.68-1.4,16.49-14.73,18.24-4.21.7-6.67,2.11-6.67,4.57s2.11,3.85,4.56,3.85c4.56,0,9.83-1.4,27.37-1.4,16.84,0,22.1,1.4,27.71,1.4,3.86,0,5.27-1.05,5.27-3.5,0-3.16-2.81-3.86-9.13-4.92-12.63-2.1-12.63-8.42-12.63-20V358.93c0-2.8-1-4.21-3.15-4.21-1.41,0-3.16,1.76-5.62,3.86a85.86,85.86,0,0,1-21.75,11.93c-7,2.46-9.82,3.86-9.82,6s1.4,3.15,3.86,3.5c12.28,2.11,14.73,4.57,14.73,15.09v96.48Zm52.27-83.85c0,21.4,7.72,38.59,24.56,50.52,5.61,3.86,9.47,4.56,9.47,5.61,0,1.76-15.08,9.13-20.34,11.58-10.18,6-14,7-14,12.63,0,3.16,6.32,9.12,12.28,14.74,6,6,11.93,11.22,11.93,13,0,1.4-7,4.21-13,8.42C286,529.44,278,537.51,278,551.54c0,31.23,31.22,41.75,53.68,41.75,38.59,0,75.78-22.8,75.78-55.43,0-27.72-15.44-43.15-55.78-43.15-9.48,0-17.55.7-26.32.7-6.66,0-18.24-2.81-18.24-11.93,0-7.72,5.61-10.87,40.35-20.7,29.82-5.61,39.29-31.58,39.29-52.62,0-9.13-1.05-16.14-2.81-21.76-1.4-4.56-2.8-7.71-2.8-9.12s2.8-1.75,6.31-1.75a62.26,62.26,0,0,0,8.07.35c7.37,0,8.77-2.11,8.77-6.31,0-6.32-5.26-7.37-12.63-7.37H373.39c-6,0-8.77-.35-13.33-2.46-7-3.51-14.39-7-24.91-7-30.18,0-51.93,26.67-51.93,52.63v.35Zm53,51.22c-17.89,0-29.47-20-29.47-51.22,0-31.57,12.63-46.66,27-46.66,17.9,0,29.47,20.35,29.47,51.57,0,31.58-12.28,46.31-26.66,46.31Zm3.16,126c-24.91,0-41.05-14.73-41.05-36.48,0-10.88,6.66-24.56,17.54-30.53,4.91-1.4,18.24-2.45,31.58-2.45,21.4,0,40,4.21,40,27.36A39.55,39.55,0,0,1,373,574c-8.77,7-20.7,10.88-33.33,10.88ZM433,330.17c7.37,0,13.34-5.27,13.34-17.55,0-11.57-6-17.19-13.34-17.19-7,0-13.33,5.62-13.33,17.55s6,17.19,13,17.19ZM422.15,491.55c0,13.68-1.4,16.49-14.74,18.24-4.21.7-6.66,2.11-6.66,4.57s2.1,3.85,4.56,3.85c4.56,0,9.82-1.4,27.36-1.4,16.84,0,22.11,1.4,27.72,1.4,3.86,0,5.26-1.05,5.26-3.5,0-3.16-2.81-3.86-9.12-4.92-12.63-2.1-12.63-8.42-12.63-20V358.93c0-2.8-1-4.21-3.16-4.21-1.4,0-3.15,1.76-5.61,3.86a85.86,85.86,0,0,1-21.75,11.93c-7,2.46-9.83,3.86-9.83,6s1.41,3.15,3.86,3.5c12.28,2.11,14.74,4.57,14.74,15.09v96.48Zm78.58-114.72c0-6,1-6.67,6.31-6.67h17.55c6.66,0,8.42-1.75,8.42-6.31,0-4.21-2.11-5.27-7.72-5.27H507.75c-5.26,0-7-2.1-7-7.71V320.69c0-6.66-.7-7.71-3.16-7.71-2.1,0-2.45,1.75-5.26,7.36-9.47,18.25-17.89,28.07-24.56,35.09-3.86,4.21-6,6.66-6,8.42,0,3.86,2.8,4.21,6,4.21a18.54,18.54,0,0,1,7.72.35c2.46.7,3.86,1.75,3.86,5.26v113c0,13,1.76,21.05,7,27,4.91,4.91,11.92,7.37,20.69,7.37,24.91,0,31.23-27.36,31.23-30.52,0-2.11-1-2.81-3.16-2.81-2.45,0-4.56,4.91-7.71,9.47s-7.73,9.48-14.39,9.48c-8.77,0-12.28-6.32-12.28-18.95V376.83ZM611.24,407.7c0,8.42-1.75,11.23-11.22,17.54-6,4.56-14.74,9.83-26.67,18.24-25.61,17.55-39.64,28.78-39.64,47.37,0,19.64,12.28,30.17,27,30.17a51.12,51.12,0,0,0,33-11.93c8.77-6.66,14-14,16.49-14,1.75,0,2.46,2.1,3.51,4.91,2.1,7.37,4.91,19.65,19.29,19.65,19.3,0,29.12-20.35,29.12-26.67,0-3.86-1.05-5.26-2.8-5.26-2.11,0-3.51,3.86-4.92,7.37-1.75,3.86-4.91,7.37-11.22,7.37-7.37,0-10.18-7-10.18-16.5V380.69c0-9.83-1.4-15.44-5.26-19.3-4.91-5.26-13-6.67-24.2-6.67-41.06,0-70.88,33-70.88,51.93,0,5.26,1.76,7.37,7,7.37s10.18-2.46,13.68-5.27c3.86-3.5,6.32-8.42,8.07-13,5.62-18.94,14.39-33,33.68-33,12.28,0,16.14,7.37,16.14,25.61v19.3Zm-53.68,77.53c0-13.68,8.07-24.55,19.65-34.37A175.31,175.31,0,0,1,600,434c5.26-3.51,7.36-4.21,9.12-4.21s2.1,1.4,2.1,5.62v35.43c0,10.18-2.1,15.44-10.17,22.81-7.72,7.36-15.79,12.28-24.91,12.28-10.18,0-18.6-6.67-18.6-20.36v-.35Zm117.18,7.37c0,11.58-1.4,15.79-14.73,17.19-3.16.35-6.32,1.76-6.32,4.21a4,4,0,0,0,4.21,4.21c4.91,0,10.18-1.4,28.07-1.4,20,0,25.26,1.4,29.82,1.4,2.45,0,3.86-1.75,3.86-4.21,0-3.15-3.51-3.51-7.37-4.21-12.28-2.45-15.79-4.2-15.79-15.08V274c0-4.21-.7-5.26-1.75-5.26-2.1,0-3.51,1.05-7.72,3.51-4.56,2.81-13,6-25.61,10.17-3.51,1.06-4.91,2.11-4.91,4.56s1.75,2.81,7,3.51c9.83,1.41,11.23,3.51,11.23,12.28V492.6Zm144.54-63.15c7.72,0,7.72-1.4,7.72-18.94,0-33.68-19.3-55.79-47.71-55.79-30.88,0-64.56,27-64.56,86.31,0,47,24.56,80,64.56,80a48.39,48.39,0,0,0,42.45-24.91c2.1-4.21,5.26-10.88,5.26-16.14,0-3.16-1-4.21-2.45-4.21-2.46,0-3.51,4.91-7,11.58-5.26,11.58-16.14,19-33,19-27.72,0-46-28.07-46-69.47,0-5.62,2.1-7.37,9.12-7.37Zm-79.64-16.84c0-25.61,15.09-49.82,37.19-49.82,18.94,0,29.12,16.14,29.12,37.19,0,9.12-2.1,13-6.31,15.44-3.51,1.75-13.34,3.16-25.27,3.86-6,.35-12.63.7-20,.7-13.69,0-14.74-1.4-14.74-7v-.35Z" transform="translate(-33.08 -9.57)"/><path class="cls-1" d="M129.74,228.49c0,17.2-1.41,19.3-14.74,21-5.61.71-7,1.76-7,4.92s1.76,4.56,6,4.56c8.42,0,15.43-1.41,28.42-1.41,10.17,0,18.24,1.41,24.55,1.41,6.67,0,8.77-1.06,8.77-4.21,0-4.21-5.26-4.21-10.87-4.92-7-.7-11.23-4.56-11.23-22.45V156.92c0-5.61,10.88-16.84,13.68-16.84,1.76,0,5.27,5.62,8.07,11.23,12.63,22.45,24.91,44.91,37.54,67.36,8.07,15.44,10.53,19,10.53,22.81,0,6.66-6,7.36-11.58,8.06-5.26.71-10.17.71-10.17,4.92,0,3.5,2.1,4.56,8.07,4.56,6.66,0,16.84-1.41,28.76-1.41,11.23,0,18.95,1.41,27.37,1.41,4.91,0,7-2.11,7-4.56,0-4.21-5.27-3.51-9.83-4.92-6.31-1.75-9.12-3.15-27-35.78-25.26-47.36-38.24-70.52-46.66-83.85-3.51-6.32-4.91-8.77-4.91-10.17,0-1.76,1.4-3.86,6-10.18,10.52-14.38,22.1-27.71,34-41C239.2,52.73,249,46.76,256.74,45.71c6.66-1.4,10.17-.35,10.17-4.56,0-2.81-1.75-4.21-7-4.21s-15.08,1.4-25.26,1.4c-9.12,0-20-1.4-27.36-1.4-4.21,0-6.67,1.75-6.67,4.21,0,3.16,3.16,3.86,8.77,4.91,7,1,10.53,2.81,10.53,7.72,0,3.16-5.26,10.52-10.17,17.54C195,90.62,171.13,118.68,162,129.21c-3.51,4.56-6.31,8.07-7,8.07-1.06,0-1.41-1.41-1.41-10.88V61.15c0-9.83,2.11-13.34,10.53-14.39,8.07-2.1,11.57-.7,11.57-5.26,0-3.16-1.75-4.56-5.61-4.56-8.07,0-17.54,1.4-27.36,1.4-11.93,0-22.81-1.4-29.12-1.4-3.51,0-5.62,1.75-5.62,4.21,0,4.56,4.56,3.86,12.28,5.61,8.07,1.05,9.48,4.21,9.48,18.95V228.49Zm154,4.92c0,11.57-1.4,15.78-14.74,17.19-3.15.35-6.31,1.75-6.31,4.21a4,4,0,0,0,4.21,4.21c4.91,0,10.17-1.41,28.07-1.41,20,0,25.26,1.41,29.82,1.41,2.45,0,3.86-1.76,3.86-4.21,0-3.16-3.51-3.51-7.37-4.21-12.28-2.46-15.79-4.21-15.79-15.09V14.84c0-4.21-.7-5.27-1.75-5.27-2.11,0-3.51,1.06-7.72,3.51-4.56,2.81-13,6-25.61,10.18-3.51,1-4.91,2.1-4.91,4.56s1.75,2.8,7,3.51c9.83,1.4,11.23,3.5,11.23,12.27V233.41ZM410.4,148.5c0,8.42-1.76,11.23-11.23,17.55-6,4.56-14.74,9.82-26.66,18.24-25.61,17.54-39.65,28.77-39.65,47.36,0,19.65,12.28,30.17,27,30.17a51.07,51.07,0,0,0,33-11.93c8.78-6.66,14-14,16.49-14,1.76,0,2.46,2.11,3.51,4.91,2.11,7.37,4.91,19.65,19.3,19.65,19.3,0,29.12-20.35,29.12-26.66,0-3.86-1.06-5.27-2.81-5.27-2.11,0-3.51,3.86-4.91,7.37-1.75,3.86-4.91,7.37-11.23,7.37-7.37,0-10.17-7-10.17-16.49V121.49c0-9.82-1.4-15.44-5.26-19.3-4.92-5.26-13-6.66-24.21-6.66-41.05,0-70.87,33-70.87,51.92,0,5.26,1.75,7.37,7,7.37s10.17-2.46,13.68-5.26c3.86-3.51,6.31-8.42,8.07-13,5.61-19,14.38-33,33.68-33,12.28,0,16.14,7.37,16.14,25.61V148.5ZM356.72,226c0-13.68,8.07-24.56,19.65-34.38a173.57,173.57,0,0,1,22.8-16.84c5.26-3.51,7.37-4.21,9.12-4.21s2.11,1.4,2.11,5.61v35.43c0,10.18-2.11,15.44-10.18,22.81-7.72,7.37-15.79,12.28-24.91,12.28-10.17,0-18.59-6.67-18.59-20.35V226ZM459.16,138c0,26.66,18.94,37.19,36.49,46.66,16.14,9.12,33,17.89,33,40,0,17.55-12.63,29.12-29.82,29.12-15.09,0-23.16-10.52-27.72-24.2-5.61-16.14-4.91-21.4-8.77-21.4-3.16,0-4.21,3.15-4.21,18.59,0,8.42.35,14.74.35,19.65.7,6.66,1.75,8.42,3.86,9.47a57.74,57.74,0,0,0,6,2.1,81.26,81.26,0,0,0,25.26,3.86c31.23,0,55.08-18.24,55.08-50.52,0-25.26-17.89-37.19-35.43-47.36C495,153.77,477.4,145.7,477.4,128.16c0-14,12.28-24.56,27.37-24.56,11.58,0,17.19,6.66,21.4,15.78,5.61,12.63,6,19,9.82,19,2.46,0,3.16-3.16,3.51-8.42v-9.47c0-5.62,0-9.83-.35-13s-.7-5.27-2.1-6.32c-6.32-3.86-17.19-5.61-28.07-5.61-25.61,0-49.82,13.68-49.82,42.1V138Zm94,0c0,26.66,19,37.19,36.49,46.66,16.14,9.12,33,17.89,33,40,0,17.55-12.62,29.12-29.82,29.12-15.08,0-23.15-10.52-27.71-24.2-5.61-16.14-4.91-21.4-8.77-21.4-3.16,0-4.21,3.15-4.21,18.59,0,8.42.35,14.74.35,19.65.7,6.66,1.76,8.42,3.86,9.47a56.91,56.91,0,0,0,6,2.1,81.26,81.26,0,0,0,25.26,3.86c31.23,0,55.08-18.24,55.08-50.52,0-25.26-17.89-37.19-35.43-47.36-18.25-10.17-35.79-18.24-35.79-35.78,0-14,12.28-24.56,27.37-24.56,11.58,0,17.19,6.66,21.4,15.78,5.61,12.63,6,19,9.82,19,2.46,0,3.16-3.16,3.51-8.42v-9.47c0-5.62,0-9.83-.35-13s-.7-5.27-2.1-6.32c-6.32-3.86-17.2-5.61-28.07-5.61-25.61,0-49.82,13.68-49.82,42.1V138Zm195.41,32.28c7.72,0,7.72-1.41,7.72-18.95,0-33.68-19.3-55.78-47.71-55.78-30.88,0-64.56,27-64.56,86.3,0,47,24.56,80,64.56,80a48.39,48.39,0,0,0,42.45-24.91c2.1-4.21,5.26-10.87,5.26-16.13,0-3.16-1-4.21-2.45-4.21-2.46,0-3.51,4.91-7,11.57-5.26,11.58-16.14,19-33,19-27.72,0-46-28.07-46-69.47,0-5.61,2.1-7.36,9.12-7.36ZM669,153.42c0-25.62,15.09-49.82,37.19-49.82,18.94,0,29.12,16.14,29.12,37.19,0,9.12-2.11,13-6.32,15.43-3.51,1.76-13.33,3.16-25.26,3.86-6,.35-12.63.7-20,.7-13.69,0-14.74-1.4-14.74-7v-.35Z" transform="translate(-33.08 -9.57)"/></svg>